<svg xmlns="http://www.w3.org/2000/svg" xmlns:xlink="http://www.w3.org/1999/xlink" width="500" zoomAndPan="magnify" viewBox="0 0 375 374.999991" height="500" preserveAspectRatio="xMidYMid meet" version="1.0"><defs><clipPath id="9bfbc2e8b4"><path d="M 14.023438 15.285156 L 361 15.285156 L 361 359.535156 L 14.023438 359.535156 Z M 14.023438 15.285156 " clip-rule="nonzero"/></clipPath></defs><path fill="#ffc915" d="M 199.84375 280.707031 C 199.359375 280.707031 198.875 280.753906 198.398438 280.847656 C 197.921875 280.941406 197.460938 281.082031 197.011719 281.269531 C 196.558594 281.453125 196.132812 281.683594 195.730469 281.953125 C 195.324219 282.222656 194.949219 282.527344 194.605469 282.871094 C 194.261719 283.214844 193.953125 283.589844 193.683594 283.992188 C 193.414062 284.398438 193.1875 284.824219 193 285.273438 C 192.8125 285.722656 192.671875 286.1875 192.578125 286.664062 C 192.480469 287.140625 192.433594 287.621094 192.433594 288.109375 C 192.433594 288.59375 192.480469 289.074219 192.574219 289.550781 C 192.671875 290.03125 192.808594 290.492188 192.996094 290.941406 C 193.183594 291.390625 193.410156 291.816406 193.679688 292.222656 C 193.949219 292.628906 194.257812 293 194.601562 293.34375 C 194.945312 293.6875 195.316406 293.996094 195.722656 294.265625 C 196.125 294.539062 196.554688 294.765625 197.003906 294.953125 C 197.453125 295.136719 197.914062 295.277344 198.390625 295.375 C 198.867188 295.46875 199.351562 295.515625 199.835938 295.515625 C 200.324219 295.515625 200.804688 295.46875 201.28125 295.375 C 201.757812 295.28125 202.222656 295.140625 202.671875 294.953125 C 203.121094 294.765625 203.546875 294.539062 203.949219 294.269531 C 204.355469 294 204.730469 293.691406 205.074219 293.347656 C 205.417969 293.003906 205.722656 292.628906 205.996094 292.226562 C 206.265625 291.820312 206.492188 291.394531 206.679688 290.945312 C 206.863281 290.496094 207.003906 290.035156 207.101562 289.554688 C 207.195312 289.078125 207.242188 288.597656 207.242188 288.113281 C 207.242188 287.625 207.195312 287.144531 207.101562 286.667969 C 207.003906 286.191406 206.863281 285.730469 206.679688 285.28125 C 206.492188 284.832031 206.265625 284.40625 205.996094 284 C 205.722656 283.597656 205.417969 283.222656 205.074219 282.878906 C 204.730469 282.535156 204.359375 282.230469 203.953125 281.960938 C 203.550781 281.6875 203.125 281.460938 202.675781 281.273438 C 202.226562 281.085938 201.765625 280.945312 201.289062 280.851562 C 200.8125 280.757812 200.332031 280.707031 199.84375 280.707031 Z M 199.84375 280.707031 " fill-opacity="1" fill-rule="nonzero"/><path fill="#ffc915" d="M 179.703125 288.113281 C 179.703125 288.597656 179.65625 289.078125 179.558594 289.554688 C 179.464844 290.035156 179.324219 290.496094 179.136719 290.945312 C 178.953125 291.394531 178.726562 291.820312 178.453125 292.226562 C 178.183594 292.628906 177.878906 293.003906 177.535156 293.347656 C 177.191406 293.691406 176.816406 294 176.414062 294.269531 C 176.011719 294.539062 175.582031 294.765625 175.132812 294.953125 C 174.6875 295.140625 174.222656 295.28125 173.746094 295.375 C 173.269531 295.46875 172.789062 295.515625 172.304688 295.515625 C 171.816406 295.515625 171.335938 295.46875 170.859375 295.375 C 170.382812 295.28125 169.921875 295.140625 169.472656 294.953125 C 169.023438 294.765625 168.597656 294.539062 168.191406 294.269531 C 167.789062 294 167.414062 293.691406 167.070312 293.347656 C 166.730469 293.003906 166.421875 292.628906 166.152344 292.226562 C 165.882812 291.820312 165.652344 291.394531 165.46875 290.945312 C 165.28125 290.496094 165.140625 290.035156 165.046875 289.554688 C 164.953125 289.078125 164.90625 288.597656 164.90625 288.113281 C 164.90625 287.625 164.953125 287.144531 165.046875 286.667969 C 165.140625 286.191406 165.28125 285.726562 165.46875 285.277344 C 165.652344 284.828125 165.882812 284.402344 166.152344 284 C 166.421875 283.59375 166.730469 283.21875 167.070312 282.875 C 167.414062 282.53125 167.789062 282.226562 168.191406 281.957031 C 168.597656 281.683594 169.023438 281.457031 169.472656 281.269531 C 169.921875 281.085938 170.382812 280.945312 170.859375 280.851562 C 171.335938 280.753906 171.816406 280.707031 172.304688 280.707031 C 172.789062 280.707031 173.269531 280.753906 173.746094 280.851562 C 174.222656 280.945312 174.6875 281.085938 175.132812 281.269531 C 175.582031 281.457031 176.011719 281.683594 176.414062 281.957031 C 176.816406 282.226562 177.191406 282.53125 177.535156 282.875 C 177.878906 283.21875 178.183594 283.59375 178.453125 284 C 178.726562 284.402344 178.953125 284.828125 179.136719 285.277344 C 179.324219 285.726562 179.464844 286.191406 179.558594 286.667969 C 179.65625 287.144531 179.703125 287.625 179.703125 288.113281 Z M 179.703125 288.113281 " fill-opacity="1" fill-rule="nonzero"/><path fill="#ffc915" d="M 150.0625 282.679688 L 110.199219 282.679688 C 109.84375 282.679688 109.492188 282.714844 109.140625 282.785156 C 108.792969 282.855469 108.453125 282.957031 108.121094 283.09375 C 107.792969 283.230469 107.480469 283.398438 107.183594 283.597656 C 106.886719 283.792969 106.613281 284.019531 106.359375 284.269531 C 106.109375 284.523438 105.882812 284.796875 105.683594 285.09375 C 105.488281 285.390625 105.320312 285.703125 105.183594 286.035156 C 105.046875 286.363281 104.945312 286.703125 104.875 287.050781 C 104.804688 287.402344 104.769531 287.753906 104.769531 288.113281 C 104.769531 288.46875 104.804688 288.820312 104.875 289.171875 C 104.945312 289.519531 105.046875 289.859375 105.183594 290.191406 C 105.320312 290.519531 105.488281 290.832031 105.683594 291.128906 C 105.882812 291.425781 106.109375 291.699219 106.359375 291.953125 C 106.613281 292.203125 106.886719 292.429688 107.183594 292.628906 C 107.480469 292.824219 107.792969 292.992188 108.121094 293.128906 C 108.453125 293.265625 108.792969 293.371094 109.140625 293.4375 C 109.492188 293.507812 109.84375 293.542969 110.199219 293.542969 L 150.0625 293.542969 C 150.421875 293.542969 150.773438 293.507812 151.125 293.4375 C 151.472656 293.371094 151.8125 293.265625 152.140625 293.128906 C 152.472656 292.992188 152.785156 292.824219 153.082031 292.628906 C 153.378906 292.429688 153.652344 292.203125 153.90625 291.953125 C 154.15625 291.699219 154.382812 291.425781 154.578125 291.128906 C 154.777344 290.832031 154.945312 290.519531 155.082031 290.191406 C 155.21875 289.859375 155.320312 289.519531 155.390625 289.171875 C 155.460938 288.820312 155.496094 288.46875 155.496094 288.113281 C 155.496094 287.753906 155.460938 287.402344 155.390625 287.050781 C 155.320312 286.703125 155.21875 286.363281 155.082031 286.035156 C 154.945312 285.703125 154.777344 285.390625 154.578125 285.09375 C 154.382812 284.796875 154.15625 284.523438 153.90625 284.269531 C 153.652344 284.019531 153.378906 283.792969 153.082031 283.597656 C 152.785156 283.398438 152.472656 283.230469 152.140625 283.09375 C 151.8125 282.957031 151.472656 282.855469 151.125 282.785156 C 150.773438 282.714844 150.421875 282.679688 150.0625 282.679688 Z M 150.0625 282.679688 " fill-opacity="1" fill-rule="nonzero"/><path fill="#ffc915" d="M 264.789062 282.679688 L 224.421875 282.679688 C 224.066406 282.679688 223.710938 282.714844 223.363281 282.785156 C 223.011719 282.855469 222.671875 282.957031 222.34375 283.09375 C 222.015625 283.230469 221.699219 283.398438 221.40625 283.597656 C 221.109375 283.792969 220.832031 284.019531 220.582031 284.269531 C 220.328125 284.523438 220.105469 284.796875 219.90625 285.09375 C 219.707031 285.390625 219.539062 285.703125 219.402344 286.035156 C 219.265625 286.363281 219.164062 286.703125 219.09375 287.050781 C 219.023438 287.402344 218.992188 287.753906 218.992188 288.113281 C 218.992188 288.46875 219.023438 288.820312 219.09375 289.171875 C 219.164062 289.519531 219.265625 289.859375 219.402344 290.191406 C 219.539062 290.519531 219.707031 290.832031 219.90625 291.128906 C 220.105469 291.425781 220.328125 291.699219 220.582031 291.953125 C 220.832031 292.203125 221.109375 292.429688 221.40625 292.628906 C 221.699219 292.824219 222.015625 292.992188 222.34375 293.128906 C 222.671875 293.265625 223.011719 293.371094 223.363281 293.4375 C 223.710938 293.507812 224.066406 293.542969 224.421875 293.542969 L 264.789062 293.542969 C 265.144531 293.542969 265.496094 293.507812 265.847656 293.4375 C 266.195312 293.371094 266.535156 293.265625 266.867188 293.128906 C 267.195312 292.992188 267.507812 292.824219 267.804688 292.628906 C 268.101562 292.429688 268.375 292.203125 268.628906 291.953125 C 268.878906 291.699219 269.105469 291.425781 269.304688 291.128906 C 269.5 290.832031 269.667969 290.519531 269.804688 290.191406 C 269.941406 289.859375 270.042969 289.519531 270.113281 289.171875 C 270.183594 288.820312 270.21875 288.46875 270.21875 288.113281 C 270.21875 287.753906 270.183594 287.402344 270.113281 287.050781 C 270.042969 286.703125 269.941406 286.363281 269.804688 286.035156 C 269.667969 285.703125 269.5 285.390625 269.304688 285.09375 C 269.105469 284.796875 268.878906 284.523438 268.628906 284.269531 C 268.375 284.019531 268.101562 283.792969 267.804688 283.597656 C 267.507812 283.398438 267.195312 283.230469 266.867188 283.09375 C 266.535156 282.957031 266.195312 282.855469 265.847656 282.785156 C 265.496094 282.714844 265.144531 282.679688 264.789062 282.679688 Z M 264.789062 282.679688 " fill-opacity="1" fill-rule="nonzero"/><path fill="#ffc915" d="M 264.789062 80.941406 L 110.199219 80.941406 C 109.84375 80.941406 109.492188 80.972656 109.140625 81.042969 C 108.792969 81.113281 108.453125 81.214844 108.121094 81.351562 C 107.792969 81.488281 107.480469 81.65625 107.183594 81.855469 C 106.886719 82.054688 106.613281 82.277344 106.359375 82.53125 C 106.109375 82.78125 105.882812 83.058594 105.683594 83.355469 C 105.488281 83.648438 105.320312 83.964844 105.183594 84.292969 C 105.046875 84.621094 104.945312 84.960938 104.875 85.3125 C 104.804688 85.660156 104.769531 86.015625 104.769531 86.371094 C 104.769531 86.726562 104.804688 87.082031 104.875 87.429688 C 104.945312 87.78125 105.046875 88.121094 105.183594 88.449219 C 105.320312 88.777344 105.488281 89.09375 105.683594 89.386719 C 105.882812 89.683594 106.109375 89.960938 106.359375 90.210938 C 106.613281 90.464844 106.886719 90.6875 107.183594 90.886719 C 107.480469 91.085938 107.792969 91.253906 108.121094 91.390625 C 108.453125 91.527344 108.792969 91.628906 109.140625 91.699219 C 109.492188 91.769531 109.84375 91.800781 110.199219 91.800781 L 264.789062 91.800781 C 265.144531 91.800781 265.496094 91.769531 265.847656 91.699219 C 266.195312 91.628906 266.535156 91.527344 266.867188 91.390625 C 267.195312 91.253906 267.507812 91.085938 267.804688 90.886719 C 268.101562 90.6875 268.375 90.464844 268.628906 90.210938 C 268.878906 89.960938 269.105469 89.683594 269.304688 89.386719 C 269.5 89.09375 269.667969 88.777344 269.804688 88.449219 C 269.941406 88.121094 270.042969 87.78125 270.113281 87.429688 C 270.183594 87.082031 270.21875 86.726562 270.21875 86.371094 C 270.21875 86.015625 270.183594 85.660156 270.113281 85.3125 C 270.042969 84.960938 269.941406 84.621094 269.804688 84.292969 C 269.667969 83.964844 269.5 83.648438 269.304688 83.355469 C 269.105469 83.058594 268.878906 82.78125 268.628906 82.53125 C 268.375 82.277344 268.101562 82.054688 267.804688 81.855469 C 267.507812 81.65625 267.195312 81.488281 266.867188 81.351562 C 266.535156 81.214844 266.195312 81.113281 265.847656 81.042969 C 265.496094 80.972656 265.144531 80.941406 264.789062 80.941406 Z M 264.789062 80.941406 " fill-opacity="1" fill-rule="nonzero"/><g clip-path="url(#9bfbc2e8b4)"><path fill="#ffc915" d="M 351.597656 250.273438 C 352.207031 250.273438 352.8125 250.214844 353.414062 250.09375 C 354.011719 249.972656 354.59375 249.796875 355.160156 249.5625 C 355.722656 249.328125 356.261719 249.042969 356.769531 248.703125 C 357.277344 248.363281 357.746094 247.976562 358.179688 247.542969 C 358.609375 247.113281 358.996094 246.640625 359.335938 246.132812 C 359.675781 245.625 359.964844 245.089844 360.195312 244.523438 C 360.429688 243.960938 360.609375 243.378906 360.726562 242.777344 C 360.847656 242.179688 360.90625 241.574219 360.910156 240.964844 L 360.910156 226.488281 C 360.90625 225.878906 360.847656 225.273438 360.726562 224.671875 C 360.609375 224.074219 360.429688 223.492188 360.195312 222.925781 C 359.964844 222.363281 359.675781 221.824219 359.335938 221.316406 C 358.996094 220.808594 358.609375 220.339844 358.179688 219.90625 C 357.746094 219.476562 357.277344 219.089844 356.769531 218.75 C 356.261719 218.410156 355.722656 218.125 355.160156 217.890625 C 354.59375 217.65625 354.011719 217.476562 353.414062 217.359375 C 352.8125 217.238281 352.207031 217.179688 351.597656 217.175781 L 316.941406 217.175781 L 316.941406 201.726562 L 350.824219 201.726562 C 351.433594 201.726562 352.039062 201.664062 352.640625 201.546875 C 353.238281 201.425781 353.820312 201.25 354.386719 201.015625 C 354.949219 200.78125 355.484375 200.492188 355.992188 200.15625 C 356.503906 199.816406 356.972656 199.429688 357.40625 198.996094 C 357.835938 198.566406 358.222656 198.09375 358.5625 197.585938 C 358.902344 197.078125 359.1875 196.542969 359.421875 195.976562 C 359.65625 195.414062 359.835938 194.832031 359.953125 194.230469 C 360.074219 193.632812 360.132812 193.027344 360.132812 192.414062 L 360.132812 177.941406 C 360.132812 177.328125 360.074219 176.726562 359.953125 176.125 C 359.835938 175.527344 359.65625 174.945312 359.421875 174.378906 C 359.1875 173.816406 358.902344 173.277344 358.5625 172.769531 C 358.222656 172.261719 357.835938 171.792969 357.40625 171.359375 C 356.972656 170.929688 356.503906 170.542969 355.992188 170.203125 C 355.484375 169.863281 354.949219 169.574219 354.386719 169.339844 C 353.820312 169.109375 353.238281 168.929688 352.640625 168.8125 C 352.039062 168.691406 351.433594 168.632812 350.824219 168.628906 L 316.941406 168.628906 L 316.941406 153.683594 L 350.824219 153.683594 C 351.433594 153.679688 352.039062 153.621094 352.640625 153.5 C 353.238281 153.382812 353.820312 153.203125 354.386719 152.96875 C 354.949219 152.734375 355.484375 152.449219 355.992188 152.109375 C 356.503906 151.769531 356.972656 151.382812 357.40625 150.953125 C 357.835938 150.519531 358.222656 150.050781 358.5625 149.542969 C 358.902344 149.035156 359.1875 148.496094 359.421875 147.933594 C 359.65625 147.367188 359.835938 146.785156 359.953125 146.1875 C 360.074219 145.585938 360.132812 144.980469 360.132812 144.371094 L 360.132812 129.894531 C 360.132812 129.285156 360.074219 128.679688 359.953125 128.082031 C 359.835938 127.480469 359.65625 126.898438 359.421875 126.335938 C 359.1875 125.769531 358.902344 125.234375 358.5625 124.726562 C 358.222656 124.21875 357.835938 123.746094 357.40625 123.316406 C 356.972656 122.882812 356.503906 122.496094 355.996094 122.15625 C 355.484375 121.816406 354.949219 121.53125 354.386719 121.296875 C 353.820312 121.0625 353.238281 120.886719 352.640625 120.765625 C 352.039062 120.644531 351.433594 120.585938 350.824219 120.585938 L 316.941406 120.585938 L 316.941406 108.539062 L 350.824219 108.539062 C 351.433594 108.535156 352.039062 108.476562 352.640625 108.355469 C 353.238281 108.238281 353.820312 108.058594 354.386719 107.824219 C 354.949219 107.589844 355.484375 107.304688 355.996094 106.964844 C 356.503906 106.625 356.972656 106.238281 357.40625 105.808594 C 357.835938 105.375 358.222656 104.90625 358.5625 104.398438 C 358.902344 103.890625 359.1875 103.351562 359.421875 102.789062 C 359.65625 102.222656 359.835938 101.640625 359.953125 101.042969 C 360.074219 100.441406 360.132812 99.835938 360.132812 99.226562 L 360.132812 84.75 C 360.132812 84.140625 360.074219 83.535156 359.953125 82.9375 C 359.835938 82.335938 359.65625 81.753906 359.421875 81.191406 C 359.1875 80.625 358.902344 80.089844 358.5625 79.582031 C 358.222656 79.074219 357.835938 78.601562 357.40625 78.171875 C 356.972656 77.738281 356.503906 77.351562 355.992188 77.011719 C 355.484375 76.671875 354.949219 76.386719 354.386719 76.152344 C 353.820312 75.917969 353.238281 75.742188 352.640625 75.621094 C 352.039062 75.5 351.433594 75.441406 350.824219 75.441406 L 316.941406 75.441406 L 316.941406 74.933594 C 316.941406 73.839844 316.839844 72.761719 316.632812 71.6875 C 316.429688 70.617188 316.125 69.574219 315.71875 68.5625 C 315.316406 67.550781 314.820312 66.585938 314.230469 65.667969 C 313.640625 64.75 312.96875 63.894531 312.21875 63.105469 C 311.464844 62.316406 310.644531 61.605469 309.757812 60.972656 C 308.867188 60.339844 307.929688 59.796875 306.9375 59.34375 C 305.945312 58.890625 304.917969 58.535156 303.859375 58.277344 C 302.796875 58.019531 301.722656 57.867188 300.632812 57.816406 L 300.632812 24.570312 C 300.632812 23.960938 300.574219 23.355469 300.453125 22.753906 C 300.335938 22.15625 300.15625 21.574219 299.921875 21.007812 C 299.6875 20.445312 299.402344 19.910156 299.0625 19.402344 C 298.722656 18.894531 298.335938 18.421875 297.90625 17.992188 C 297.472656 17.558594 297.003906 17.171875 296.492188 16.832031 C 295.984375 16.492188 295.449219 16.207031 294.886719 15.972656 C 294.320312 15.738281 293.738281 15.5625 293.140625 15.441406 C 292.539062 15.320312 291.933594 15.261719 291.324219 15.261719 L 276.847656 15.261719 C 276.238281 15.261719 275.632812 15.320312 275.03125 15.441406 C 274.433594 15.5625 273.851562 15.738281 273.289062 15.972656 C 272.722656 16.207031 272.1875 16.492188 271.679688 16.832031 C 271.171875 17.171875 270.699219 17.558594 270.269531 17.992188 C 269.835938 18.421875 269.449219 18.894531 269.109375 19.402344 C 268.769531 19.910156 268.484375 20.445312 268.25 21.007812 C 268.015625 21.574219 267.839844 22.15625 267.71875 22.753906 C 267.597656 23.355469 267.539062 23.960938 267.539062 24.570312 L 267.539062 57.796875 L 252.085938 57.796875 L 252.085938 24.570312 C 252.085938 23.960938 252.027344 23.355469 251.90625 22.753906 C 251.789062 22.15625 251.609375 21.574219 251.375 21.007812 C 251.140625 20.445312 250.855469 19.910156 250.515625 19.402344 C 250.175781 18.894531 249.789062 18.421875 249.355469 17.992188 C 248.925781 17.558594 248.453125 17.171875 247.945312 16.832031 C 247.4375 16.492188 246.902344 16.207031 246.339844 15.972656 C 245.773438 15.738281 245.191406 15.5625 244.59375 15.441406 C 243.992188 15.320312 243.386719 15.261719 242.777344 15.261719 L 228.300781 15.261719 C 227.691406 15.261719 227.085938 15.320312 226.484375 15.441406 C 225.886719 15.5625 225.304688 15.738281 224.738281 15.972656 C 224.175781 16.207031 223.640625 16.492188 223.132812 16.832031 C 222.621094 17.171875 222.152344 17.558594 221.71875 17.992188 C 221.289062 18.421875 220.902344 18.894531 220.5625 19.402344 C 220.222656 19.910156 219.9375 20.445312 219.703125 21.007812 C 219.46875 21.574219 219.289062 22.15625 219.171875 22.753906 C 219.050781 23.355469 218.992188 23.960938 218.992188 24.570312 L 218.992188 57.796875 L 204.042969 57.796875 L 204.042969 24.570312 C 204.042969 23.960938 203.980469 23.355469 203.863281 22.753906 C 203.742188 22.15625 203.566406 21.574219 203.332031 21.007812 C 203.097656 20.445312 202.808594 19.910156 202.46875 19.402344 C 202.128906 18.894531 201.746094 18.421875 201.3125 17.992188 C 200.878906 17.558594 200.410156 17.171875 199.902344 16.832031 C 199.394531 16.492188 198.859375 16.207031 198.292969 15.972656 C 197.730469 15.738281 197.148438 15.5625 196.546875 15.441406 C 195.949219 15.320312 195.34375 15.261719 194.730469 15.261719 L 180.257812 15.261719 C 179.644531 15.261719 179.039062 15.320312 178.441406 15.441406 C 177.839844 15.5625 177.261719 15.738281 176.695312 15.972656 C 176.128906 16.207031 175.59375 16.492188 175.085938 16.832031 C 174.578125 17.171875 174.109375 17.558594 173.675781 17.992188 C 173.242188 18.421875 172.859375 18.894531 172.519531 19.402344 C 172.179688 19.910156 171.890625 20.445312 171.65625 21.007812 C 171.421875 21.574219 171.246094 22.15625 171.125 22.753906 C 171.007812 23.355469 170.945312 23.960938 170.945312 24.570312 L 170.945312 57.796875 L 155.496094 57.796875 L 155.496094 24.570312 C 155.496094 23.960938 155.433594 23.355469 155.316406 22.753906 C 155.195312 22.15625 155.019531 21.574219 154.785156 21.007812 C 154.550781 20.445312 154.261719 19.910156 153.921875 19.402344 C 153.582031 18.894531 153.195312 18.421875 152.765625 17.992188 C 152.332031 17.558594 151.863281 17.171875 151.355469 16.832031 C 150.847656 16.492188 150.308594 16.207031 149.746094 15.972656 C 149.179688 15.738281 148.597656 15.5625 148 15.441406 C 147.402344 15.320312 146.796875 15.261719 146.183594 15.261719 L 131.710938 15.261719 C 131.097656 15.261719 130.492188 15.320312 129.894531 15.441406 C 129.292969 15.5625 128.710938 15.738281 128.148438 15.972656 C 127.582031 16.207031 127.046875 16.492188 126.539062 16.832031 C 126.03125 17.171875 125.5625 17.558594 125.128906 17.992188 C 124.695312 18.421875 124.3125 18.894531 123.972656 19.402344 C 123.632812 19.910156 123.34375 20.445312 123.109375 21.007812 C 122.875 21.574219 122.699219 22.15625 122.578125 22.753906 C 122.460938 23.355469 122.398438 23.960938 122.398438 24.570312 L 122.398438 57.796875 L 107.449219 57.796875 L 107.449219 24.570312 C 107.449219 23.960938 107.390625 23.355469 107.269531 22.753906 C 107.148438 22.15625 106.972656 21.574219 106.738281 21.007812 C 106.503906 20.445312 106.21875 19.910156 105.878906 19.402344 C 105.539062 18.894531 105.152344 18.421875 104.71875 17.992188 C 104.289062 17.558594 103.816406 17.171875 103.308594 16.832031 C 102.800781 16.492188 102.265625 16.207031 101.703125 15.972656 C 101.136719 15.738281 100.554688 15.5625 99.957031 15.441406 C 99.355469 15.320312 98.75 15.261719 98.140625 15.261719 L 83.664062 15.261719 C 83.054688 15.261719 82.449219 15.320312 81.847656 15.441406 C 81.25 15.5625 80.667969 15.738281 80.101562 15.972656 C 79.539062 16.207031 79.003906 16.492188 78.496094 16.832031 C 77.984375 17.171875 77.515625 17.558594 77.082031 17.992188 C 76.652344 18.421875 76.265625 18.894531 75.925781 19.402344 C 75.585938 19.910156 75.300781 20.445312 75.066406 21.007812 C 74.832031 21.574219 74.652344 22.15625 74.535156 22.753906 C 74.414062 23.355469 74.355469 23.960938 74.355469 24.570312 L 74.355469 57.796875 C 73.796875 57.800781 73.238281 57.835938 72.683594 57.894531 C 72.128906 57.953125 71.578125 58.039062 71.035156 58.152344 C 70.488281 58.265625 69.949219 58.402344 69.414062 58.570312 C 68.882812 58.734375 68.359375 58.925781 67.84375 59.144531 C 67.332031 59.359375 66.828125 59.601562 66.339844 59.867188 C 65.847656 60.132812 65.371094 60.421875 64.910156 60.734375 C 64.449219 61.046875 64.003906 61.382812 63.574219 61.738281 C 63.144531 62.09375 62.734375 62.472656 62.339844 62.867188 C 61.949219 63.265625 61.574219 63.679688 61.222656 64.113281 C 60.871094 64.546875 60.542969 64.992188 60.234375 65.460938 C 59.925781 65.925781 59.640625 66.402344 59.378906 66.894531 C 59.117188 67.390625 58.882812 67.894531 58.671875 68.410156 C 58.457031 68.925781 58.273438 69.449219 58.113281 69.984375 C 57.953125 70.519531 57.816406 71.0625 57.710938 71.609375 C 57.601562 72.15625 57.523438 72.707031 57.46875 73.261719 C 57.414062 73.816406 57.386719 74.375 57.390625 74.933594 L 57.390625 75.441406 L 24.164062 75.441406 C 23.554688 75.441406 22.949219 75.5 22.347656 75.621094 C 21.75 75.742188 21.167969 75.917969 20.601562 76.152344 C 20.039062 76.386719 19.503906 76.671875 18.992188 77.011719 C 18.484375 77.351562 18.015625 77.738281 17.582031 78.171875 C 17.152344 78.601562 16.765625 79.074219 16.425781 79.582031 C 16.085938 80.089844 15.800781 80.625 15.566406 81.191406 C 15.332031 81.753906 15.152344 82.335938 15.035156 82.9375 C 14.914062 83.535156 14.855469 84.140625 14.851562 84.75 L 14.851562 99.226562 C 14.855469 99.835938 14.914062 100.441406 15.035156 101.042969 C 15.152344 101.640625 15.332031 102.222656 15.566406 102.789062 C 15.800781 103.351562 16.085938 103.890625 16.425781 104.398438 C 16.765625 104.90625 17.152344 105.375 17.582031 105.808594 C 18.015625 106.238281 18.484375 106.625 18.992188 106.964844 C 19.503906 107.304688 20.039062 107.589844 20.601562 107.824219 C 21.167969 108.058594 21.75 108.238281 22.347656 108.355469 C 22.949219 108.476562 23.554688 108.535156 24.164062 108.539062 L 57.390625 108.539062 L 57.390625 120.585938 L 24.164062 120.585938 C 23.554688 120.585938 22.949219 120.644531 22.347656 120.765625 C 21.75 120.886719 21.167969 121.0625 20.601562 121.296875 C 20.039062 121.53125 19.503906 121.816406 18.992188 122.15625 C 18.484375 122.496094 18.015625 122.882812 17.582031 123.316406 C 17.152344 123.746094 16.765625 124.21875 16.425781 124.726562 C 16.085938 125.234375 15.800781 125.769531 15.566406 126.335938 C 15.332031 126.898438 15.152344 127.480469 15.035156 128.082031 C 14.914062 128.679688 14.855469 129.285156 14.851562 129.894531 L 14.851562 144.371094 C 14.855469 144.980469 14.914062 145.585938 15.035156 146.1875 C 15.152344 146.785156 15.332031 147.367188 15.566406 147.933594 C 15.800781 148.496094 16.085938 149.035156 16.425781 149.542969 C 16.765625 150.050781 17.152344 150.519531 17.582031 150.953125 C 18.015625 151.382812 18.484375 151.769531 18.992188 152.109375 C 19.503906 152.449219 20.039062 152.734375 20.601562 152.96875 C 21.167969 153.203125 21.75 153.382812 22.347656 153.5 C 22.949219 153.621094 23.554688 153.679688 24.164062 153.683594 L 57.390625 153.683594 L 57.390625 168.628906 L 24.164062 168.628906 C 23.554688 168.632812 22.949219 168.691406 22.347656 168.8125 C 21.75 168.929688 21.167969 169.109375 20.601562 169.339844 C 20.039062 169.574219 19.503906 169.863281 18.992188 170.203125 C 18.484375 170.542969 18.015625 170.929688 17.582031 171.359375 C 17.152344 171.792969 16.765625 172.261719 16.425781 172.769531 C 16.085938 173.277344 15.800781 173.816406 15.566406 174.378906 C 15.332031 174.945312 15.152344 175.527344 15.035156 176.125 C 14.914062 176.726562 14.855469 177.328125 14.851562 177.941406 L 14.851562 192.414062 C 14.855469 193.027344 14.914062 193.632812 15.035156 194.230469 C 15.152344 194.832031 15.332031 195.414062 15.566406 195.976562 C 15.800781 196.542969 16.085938 197.078125 16.425781 197.585938 C 16.765625 198.09375 17.152344 198.566406 17.582031 198.996094 C 18.015625 199.429688 18.484375 199.816406 18.992188 200.15625 C 19.503906 200.492188 20.039062 200.78125 20.601562 201.015625 C 21.167969 201.25 21.75 201.425781 22.347656 201.546875 C 22.949219 201.664062 23.554688 201.726562 24.164062 201.726562 L 57.390625 201.726562 L 57.390625 217.175781 L 23.390625 217.175781 C 22.777344 217.179688 22.175781 217.238281 21.574219 217.359375 C 20.976562 217.476562 20.394531 217.65625 19.828125 217.890625 C 19.265625 218.125 18.726562 218.410156 18.21875 218.75 C 17.710938 219.089844 17.242188 219.476562 16.808594 219.90625 C 16.378906 220.339844 15.992188 220.808594 15.652344 221.316406 C 15.3125 221.824219 15.023438 222.363281 14.792969 222.925781 C 14.558594 223.492188 14.378906 224.074219 14.261719 224.671875 C 14.140625 225.273438 14.082031 225.878906 14.078125 226.488281 L 14.078125 240.964844 C 14.082031 241.574219 14.140625 242.179688 14.261719 242.777344 C 14.378906 243.378906 14.558594 243.960938 14.792969 244.523438 C 15.023438 245.089844 15.3125 245.625 15.652344 246.132812 C 15.992188 246.640625 16.378906 247.113281 16.808594 247.542969 C 17.242188 247.976562 17.710938 248.363281 18.21875 248.703125 C 18.726562 249.042969 19.265625 249.328125 19.828125 249.5625 C 20.394531 249.796875 20.976562 249.972656 21.574219 250.09375 C 22.175781 250.214844 22.777344 250.273438 23.390625 250.273438 L 57.390625 250.273438 L 57.390625 265.222656 L 23.390625 265.222656 C 22.777344 265.222656 22.175781 265.285156 21.574219 265.402344 C 20.976562 265.523438 20.394531 265.699219 19.828125 265.933594 C 19.265625 266.167969 18.726562 266.457031 18.21875 266.792969 C 17.710938 267.132812 17.242188 267.519531 16.808594 267.953125 C 16.378906 268.386719 15.992188 268.855469 15.652344 269.363281 C 15.3125 269.871094 15.023438 270.40625 14.792969 270.972656 C 14.558594 271.535156 14.378906 272.117188 14.261719 272.71875 C 14.140625 273.316406 14.082031 273.921875 14.078125 274.535156 L 14.078125 289.007812 C 14.082031 289.621094 14.140625 290.222656 14.261719 290.824219 C 14.378906 291.421875 14.558594 292.003906 14.789062 292.570312 C 15.023438 293.132812 15.3125 293.671875 15.652344 294.179688 C 15.992188 294.6875 16.378906 295.15625 16.808594 295.589844 C 17.242188 296.019531 17.710938 296.40625 18.21875 296.746094 C 18.726562 297.085938 19.265625 297.375 19.828125 297.609375 C 20.394531 297.839844 20.976562 298.019531 21.574219 298.136719 C 22.175781 298.257812 22.777344 298.320312 23.390625 298.320312 L 57.390625 298.320312 L 57.390625 299.984375 C 57.386719 300.542969 57.414062 301.097656 57.46875 301.652344 C 57.523438 302.210938 57.601562 302.761719 57.710938 303.308594 C 57.816406 303.855469 57.953125 304.398438 58.113281 304.929688 C 58.273438 305.464844 58.457031 305.988281 58.671875 306.507812 C 58.882812 307.023438 59.117188 307.527344 59.378906 308.019531 C 59.640625 308.511719 59.925781 308.992188 60.234375 309.457031 C 60.542969 309.921875 60.871094 310.371094 61.222656 310.804688 C 61.574219 311.238281 61.949219 311.652344 62.339844 312.046875 C 62.734375 312.445312 63.144531 312.820312 63.574219 313.175781 C 64.003906 313.53125 64.449219 313.867188 64.910156 314.179688 C 65.371094 314.492188 65.847656 314.78125 66.339844 315.046875 C 66.828125 315.3125 67.332031 315.554688 67.84375 315.773438 C 68.359375 315.988281 68.882812 316.179688 69.414062 316.347656 C 69.949219 316.511719 70.488281 316.652344 71.035156 316.765625 C 71.578125 316.878906 72.128906 316.964844 72.683594 317.023438 C 73.238281 317.082031 73.796875 317.113281 74.355469 317.117188 L 74.355469 350.34375 C 74.355469 350.957031 74.414062 351.5625 74.535156 352.160156 C 74.652344 352.761719 74.832031 353.34375 75.066406 353.90625 C 75.300781 354.472656 75.585938 355.007812 75.925781 355.515625 C 76.265625 356.023438 76.652344 356.492188 77.082031 356.925781 C 77.515625 357.359375 77.984375 357.742188 78.496094 358.082031 C 79.003906 358.421875 79.539062 358.710938 80.101562 358.945312 C 80.667969 359.179688 81.25 359.355469 81.847656 359.476562 C 82.449219 359.59375 83.054688 359.65625 83.664062 359.65625 L 98.140625 359.65625 C 98.75 359.65625 99.355469 359.59375 99.957031 359.476562 C 100.554688 359.355469 101.136719 359.179688 101.699219 358.945312 C 102.265625 358.710938 102.800781 358.421875 103.308594 358.082031 C 103.816406 357.742188 104.289062 357.359375 104.71875 356.925781 C 105.152344 356.492188 105.539062 356.023438 105.878906 355.515625 C 106.21875 355.007812 106.503906 354.472656 106.738281 353.90625 C 106.972656 353.34375 107.148438 352.761719 107.269531 352.160156 C 107.390625 351.5625 107.449219 350.957031 107.449219 350.34375 L 107.449219 317.121094 L 122.398438 317.121094 L 122.398438 350.34375 C 122.398438 350.957031 122.460938 351.5625 122.578125 352.160156 C 122.699219 352.761719 122.875 353.34375 123.109375 353.90625 C 123.34375 354.472656 123.632812 355.007812 123.972656 355.515625 C 124.3125 356.023438 124.695312 356.492188 125.128906 356.925781 C 125.5625 357.359375 126.03125 357.742188 126.539062 358.082031 C 127.046875 358.421875 127.582031 358.710938 128.148438 358.945312 C 128.710938 359.179688 129.292969 359.355469 129.894531 359.476562 C 130.492188 359.59375 131.097656 359.65625 131.710938 359.65625 L 146.183594 359.65625 C 146.796875 359.65625 147.402344 359.59375 148 359.476562 C 148.597656 359.355469 149.179688 359.179688 149.746094 358.945312 C 150.308594 358.710938 150.847656 358.421875 151.355469 358.082031 C 151.863281 357.742188 152.332031 357.359375 152.765625 356.925781 C 153.195312 356.492188 153.582031 356.023438 153.921875 355.515625 C 154.261719 355.007812 154.550781 354.472656 154.785156 353.90625 C 155.019531 353.34375 155.195312 352.761719 155.316406 352.160156 C 155.433594 351.5625 155.496094 350.957031 155.496094 350.34375 L 155.496094 317.121094 L 170.945312 317.121094 L 170.945312 350.34375 C 170.945312 350.957031 171.007812 351.5625 171.125 352.160156 C 171.246094 352.761719 171.421875 353.34375 171.65625 353.90625 C 171.890625 354.472656 172.179688 355.007812 172.519531 355.515625 C 172.859375 356.023438 173.242188 356.492188 173.675781 356.925781 C 174.109375 357.359375 174.578125 357.742188 175.085938 358.082031 C 175.59375 358.421875 176.128906 358.710938 176.695312 358.945312 C 177.261719 359.179688 177.839844 359.355469 178.441406 359.476562 C 179.039062 359.59375 179.644531 359.65625 180.257812 359.65625 L 194.730469 359.65625 C 195.34375 359.65625 195.949219 359.59375 196.546875 359.476562 C 197.148438 359.355469 197.730469 359.179688 198.292969 358.945312 C 198.859375 358.710938 199.394531 358.421875 199.902344 358.082031 C 200.410156 357.742188 200.878906 357.359375 201.3125 356.925781 C 201.746094 356.492188 202.128906 356.023438 202.46875 355.515625 C 202.808594 355.007812 203.097656 354.472656 203.332031 353.90625 C 203.566406 353.34375 203.742188 352.761719 203.863281 352.160156 C 203.980469 351.5625 204.042969 350.957031 204.042969 350.34375 L 204.042969 317.121094 L 218.214844 317.121094 L 218.214844 350.34375 C 218.21875 350.957031 218.277344 351.5625 218.398438 352.160156 C 218.515625 352.761719 218.695312 353.34375 218.929688 353.90625 C 219.164062 354.472656 219.449219 355.007812 219.789062 355.515625 C 220.128906 356.023438 220.515625 356.492188 220.945312 356.925781 C 221.378906 357.359375 221.847656 357.742188 222.355469 358.082031 C 222.863281 358.421875 223.402344 358.710938 223.964844 358.945312 C 224.53125 359.179688 225.113281 359.355469 225.710938 359.476562 C 226.3125 359.59375 226.917969 359.65625 227.527344 359.65625 L 242.003906 359.65625 C 242.613281 359.65625 243.21875 359.59375 243.816406 359.476562 C 244.417969 359.355469 245 359.179688 245.5625 358.945312 C 246.128906 358.710938 246.664062 358.421875 247.171875 358.082031 C 247.679688 357.742188 248.152344 357.359375 248.582031 356.925781 C 249.015625 356.492188 249.402344 356.023438 249.742188 355.515625 C 250.082031 355.007812 250.367188 354.472656 250.601562 353.90625 C 250.835938 353.34375 251.011719 352.761719 251.132812 352.160156 C 251.253906 351.5625 251.3125 350.957031 251.3125 350.34375 L 251.3125 317.121094 L 267.539062 317.121094 L 267.539062 350.34375 C 267.539062 350.957031 267.597656 351.5625 267.71875 352.160156 C 267.839844 352.761719 268.015625 353.34375 268.25 353.90625 C 268.484375 354.472656 268.769531 355.007812 269.109375 355.515625 C 269.449219 356.023438 269.835938 356.492188 270.269531 356.925781 C 270.699219 357.359375 271.171875 357.742188 271.679688 358.082031 C 272.1875 358.421875 272.722656 358.710938 273.289062 358.945312 C 273.851562 359.179688 274.433594 359.355469 275.03125 359.476562 C 275.632812 359.59375 276.238281 359.65625 276.847656 359.65625 L 291.324219 359.65625 C 291.933594 359.65625 292.539062 359.59375 293.140625 359.476562 C 293.738281 359.355469 294.320312 359.179688 294.886719 358.945312 C 295.449219 358.710938 295.984375 358.421875 296.492188 358.082031 C 297.003906 357.742188 297.472656 357.359375 297.90625 356.925781 C 298.335938 356.492188 298.722656 356.023438 299.0625 355.515625 C 299.402344 355.007812 299.6875 354.472656 299.921875 353.90625 C 300.15625 353.34375 300.335938 352.761719 300.453125 352.160156 C 300.574219 351.5625 300.632812 350.957031 300.632812 350.34375 L 300.632812 317.101562 C 301.722656 317.050781 302.796875 316.894531 303.859375 316.640625 C 304.917969 316.382812 305.945312 316.027344 306.9375 315.574219 C 307.929688 315.121094 308.867188 314.578125 309.757812 313.945312 C 310.644531 313.3125 311.464844 312.601562 312.21875 311.8125 C 312.96875 311.019531 313.640625 310.167969 314.230469 309.25 C 314.820312 308.332031 315.316406 307.367188 315.71875 306.351562 C 316.125 305.339844 316.429688 304.296875 316.632812 303.226562 C 316.839844 302.15625 316.941406 301.074219 316.941406 299.984375 L 316.941406 298.320312 L 351.597656 298.320312 C 352.207031 298.320312 352.8125 298.257812 353.414062 298.136719 C 354.011719 298.019531 354.59375 297.839844 355.160156 297.609375 C 355.722656 297.375 356.261719 297.085938 356.769531 296.746094 C 357.277344 296.40625 357.746094 296.019531 358.179688 295.589844 C 358.609375 295.15625 358.996094 294.6875 359.335938 294.179688 C 359.675781 293.671875 359.964844 293.132812 360.195312 292.570312 C 360.429688 292.003906 360.609375 291.421875 360.726562 290.824219 C 360.847656 290.222656 360.90625 289.621094 360.910156 289.007812 L 360.910156 274.535156 C 360.90625 273.921875 360.847656 273.316406 360.726562 272.71875 C 360.609375 272.117188 360.429688 271.535156 360.195312 270.972656 C 359.964844 270.40625 359.675781 269.871094 359.335938 269.363281 C 358.996094 268.855469 358.609375 268.386719 358.179688 267.953125 C 357.746094 267.519531 357.277344 267.132812 356.769531 266.792969 C 356.261719 266.457031 355.722656 266.167969 355.160156 265.933594 C 354.59375 265.699219 354.011719 265.523438 353.414062 265.402344 C 352.8125 265.285156 352.207031 265.222656 351.597656 265.222656 L 316.941406 265.222656 L 316.941406 250.273438 Z M 317.714844 228.039062 L 350.046875 228.039062 L 350.046875 239.410156 L 317.714844 239.410156 Z M 317.597656 179.492188 L 349.273438 179.492188 L 349.273438 190.863281 L 317.597656 190.863281 Z M 317.597656 131.449219 L 349.273438 131.449219 L 349.273438 142.820312 L 317.597656 142.820312 Z M 317.597656 86.304688 L 349.273438 86.304688 L 349.273438 97.675781 L 317.597656 97.675781 Z M 57.273438 239.410156 L 24.941406 239.410156 L 24.941406 228.039062 L 57.273438 228.039062 Z M 57.273438 287.457031 L 24.941406 287.457031 L 24.941406 276.085938 L 57.273438 276.085938 Z M 317.714844 276.085938 L 350.046875 276.085938 L 350.046875 287.457031 L 317.714844 287.457031 Z M 278.402344 26.121094 L 289.773438 26.121094 L 289.773438 57.796875 L 278.402344 57.796875 Z M 229.851562 26.121094 L 241.226562 26.121094 L 241.226562 57.796875 L 229.851562 57.796875 Z M 181.808594 26.121094 L 193.179688 26.121094 L 193.179688 57.796875 L 181.808594 57.796875 Z M 133.261719 26.121094 L 144.632812 26.121094 L 144.632812 57.796875 L 133.261719 57.796875 Z M 85.214844 26.121094 L 96.589844 26.121094 L 96.589844 57.796875 L 85.214844 57.796875 Z M 25.714844 97.675781 L 25.714844 86.304688 L 57.390625 86.304688 L 57.390625 97.675781 Z M 25.714844 142.820312 L 25.714844 131.449219 L 57.390625 131.449219 L 57.390625 142.820312 Z M 25.714844 190.863281 L 25.714844 179.492188 L 57.390625 179.492188 L 57.390625 190.863281 Z M 96.585938 348.792969 L 85.214844 348.792969 L 85.214844 317.972656 L 96.585938 317.972656 Z M 144.632812 348.792969 L 133.261719 348.792969 L 133.261719 317.121094 L 144.632812 317.121094 Z M 193.179688 348.792969 L 181.808594 348.792969 L 181.808594 317.121094 L 193.179688 317.121094 Z M 240.449219 348.792969 L 229.078125 348.792969 L 229.078125 317.121094 L 240.449219 317.121094 Z M 289.773438 348.792969 L 278.402344 348.792969 L 278.402344 317.121094 L 289.773438 317.121094 Z M 306.078125 299.984375 C 306.078125 300.394531 306.042969 300.796875 305.964844 301.199219 C 305.886719 301.601562 305.773438 301.992188 305.617188 302.371094 C 305.464844 302.75 305.277344 303.109375 305.050781 303.449219 C 304.828125 303.792969 304.570312 304.109375 304.285156 304.398438 C 303.996094 304.691406 303.683594 304.949219 303.347656 305.179688 C 303.007812 305.410156 302.652344 305.605469 302.273438 305.765625 C 301.898438 305.921875 301.511719 306.042969 301.109375 306.128906 C 300.710938 306.210938 300.304688 306.253906 299.898438 306.257812 L 74.433594 306.257812 C 74.023438 306.253906 73.621094 306.210938 73.21875 306.128906 C 72.820312 306.042969 72.429688 305.921875 72.054688 305.765625 C 71.679688 305.605469 71.320312 305.410156 70.984375 305.179688 C 70.644531 304.949219 70.332031 304.691406 70.046875 304.398438 C 69.757812 304.109375 69.503906 303.792969 69.277344 303.449219 C 69.054688 303.109375 68.863281 302.75 68.710938 302.371094 C 68.554688 301.992188 68.441406 301.601562 68.363281 301.199219 C 68.285156 300.796875 68.25 300.394531 68.253906 299.984375 L 68.253906 74.933594 C 68.25 74.523438 68.285156 74.117188 68.363281 73.714844 C 68.441406 73.316406 68.554688 72.925781 68.710938 72.546875 C 68.863281 72.167969 69.054688 71.808594 69.277344 71.464844 C 69.503906 71.125 69.757812 70.808594 70.046875 70.515625 C 70.332031 70.226562 70.644531 69.964844 70.984375 69.734375 C 71.320312 69.507812 71.679688 69.3125 72.054688 69.152344 C 72.429688 68.992188 72.820312 68.871094 73.21875 68.789062 C 73.621094 68.707031 74.023438 68.660156 74.433594 68.660156 L 299.898438 68.660156 C 300.304688 68.660156 300.710938 68.707031 301.109375 68.789062 C 301.511719 68.871094 301.898438 68.992188 302.273438 69.152344 C 302.652344 69.3125 303.007812 69.507812 303.347656 69.734375 C 303.683594 69.964844 303.996094 70.226562 304.285156 70.515625 C 304.570312 70.808594 304.828125 71.125 305.050781 71.464844 C 305.277344 71.808594 305.464844 72.167969 305.617188 72.546875 C 305.773438 72.925781 305.886719 73.316406 305.964844 73.714844 C 306.042969 74.117188 306.078125 74.523438 306.078125 74.933594 Z M 306.078125 299.984375 " fill-opacity="1" fill-rule="nonzero"/></g><path fill="#ffc915" d="M 288.148438 104.515625 C 287.792969 104.515625 287.441406 104.550781 287.089844 104.621094 C 286.738281 104.691406 286.402344 104.792969 286.070312 104.929688 C 285.742188 105.066406 285.429688 105.234375 285.132812 105.433594 C 284.835938 105.628906 284.5625 105.855469 284.308594 106.109375 C 284.058594 106.359375 283.832031 106.632812 283.632812 106.929688 C 283.433594 107.226562 283.269531 107.539062 283.132812 107.871094 C 282.996094 108.199219 282.890625 108.539062 282.824219 108.890625 C 282.753906 109.238281 282.71875 109.589844 282.71875 109.949219 L 282.71875 264.535156 C 282.71875 264.890625 282.753906 265.246094 282.824219 265.59375 C 282.890625 265.945312 282.996094 266.285156 283.132812 266.613281 C 283.269531 266.941406 283.433594 267.253906 283.632812 267.550781 C 283.832031 267.847656 284.058594 268.121094 284.308594 268.375 C 284.5625 268.628906 284.835938 268.851562 285.132812 269.050781 C 285.429688 269.25 285.742188 269.414062 286.070312 269.550781 C 286.402344 269.6875 286.738281 269.792969 287.089844 269.863281 C 287.441406 269.929688 287.792969 269.964844 288.148438 269.964844 C 288.507812 269.964844 288.859375 269.929688 289.210938 269.863281 C 289.558594 269.792969 289.898438 269.6875 290.226562 269.550781 C 290.558594 269.414062 290.871094 269.25 291.167969 269.050781 C 291.464844 268.851562 291.738281 268.628906 291.988281 268.375 C 292.242188 268.121094 292.46875 267.847656 292.664062 267.550781 C 292.863281 267.253906 293.03125 266.941406 293.167969 266.613281 C 293.304688 266.285156 293.40625 265.945312 293.476562 265.59375 C 293.546875 265.246094 293.582031 264.890625 293.582031 264.535156 L 293.582031 109.949219 C 293.582031 109.589844 293.546875 109.238281 293.476562 108.890625 C 293.40625 108.539062 293.304688 108.199219 293.167969 107.871094 C 293.03125 107.539062 292.863281 107.226562 292.664062 106.929688 C 292.46875 106.632812 292.242188 106.359375 291.988281 106.109375 C 291.738281 105.855469 291.464844 105.628906 291.167969 105.433594 C 290.871094 105.234375 290.558594 105.066406 290.226562 104.929688 C 289.898438 104.792969 289.558594 104.691406 289.210938 104.621094 C 288.859375 104.550781 288.507812 104.515625 288.148438 104.515625 Z M 288.148438 104.515625 " fill-opacity="1" fill-rule="nonzero"/><path fill="#ffc915" d="M 85.734375 104.515625 C 85.378906 104.515625 85.027344 104.550781 84.675781 104.621094 C 84.324219 104.691406 83.988281 104.792969 83.65625 104.929688 C 83.328125 105.066406 83.015625 105.234375 82.71875 105.433594 C 82.421875 105.628906 82.148438 105.855469 81.894531 106.109375 C 81.644531 106.359375 81.417969 106.632812 81.21875 106.929688 C 81.019531 107.226562 80.855469 107.539062 80.71875 107.871094 C 80.582031 108.199219 80.476562 108.539062 80.410156 108.890625 C 80.339844 109.238281 80.304688 109.589844 80.304688 109.949219 L 80.304688 263.453125 C 80.304688 263.808594 80.339844 264.160156 80.410156 264.511719 C 80.476562 264.859375 80.582031 265.199219 80.71875 265.53125 C 80.855469 265.859375 81.019531 266.171875 81.21875 266.46875 C 81.417969 266.765625 81.644531 267.039062 81.894531 267.292969 C 82.148438 267.542969 82.421875 267.769531 82.71875 267.96875 C 83.015625 268.164062 83.328125 268.332031 83.65625 268.46875 C 83.988281 268.605469 84.324219 268.710938 84.675781 268.777344 C 85.027344 268.847656 85.378906 268.882812 85.734375 268.882812 C 86.09375 268.882812 86.445312 268.847656 86.796875 268.777344 C 87.144531 268.710938 87.484375 268.605469 87.8125 268.46875 C 88.144531 268.332031 88.457031 268.164062 88.753906 267.96875 C 89.050781 267.769531 89.324219 267.542969 89.574219 267.292969 C 89.828125 267.039062 90.054688 266.765625 90.25 266.46875 C 90.449219 266.171875 90.617188 265.859375 90.753906 265.53125 C 90.890625 265.199219 90.992188 264.859375 91.0625 264.511719 C 91.132812 264.160156 91.167969 263.808594 91.167969 263.453125 L 91.167969 109.949219 C 91.167969 109.589844 91.132812 109.238281 91.0625 108.890625 C 90.992188 108.539062 90.890625 108.199219 90.753906 107.871094 C 90.617188 107.539062 90.449219 107.226562 90.25 106.929688 C 90.054688 106.632812 89.828125 106.359375 89.574219 106.109375 C 89.324219 105.855469 89.050781 105.628906 88.753906 105.433594 C 88.457031 105.234375 88.144531 105.066406 87.8125 104.929688 C 87.484375 104.792969 87.144531 104.691406 86.796875 104.621094 C 86.445312 104.550781 86.09375 104.515625 85.734375 104.515625 Z M 85.734375 104.515625 " fill-opacity="1" fill-rule="nonzero"/><path fill="#ffc915" d="M 257.046875 104.515625 L 191.503906 104.515625 L 191.503906 195.4375 C 192.054688 195.648438 192.59375 195.890625 193.117188 196.160156 C 193.640625 196.433594 194.144531 196.734375 194.632812 197.066406 C 195.121094 197.398438 195.589844 197.753906 196.035156 198.140625 C 196.484375 198.523438 196.90625 198.933594 197.304688 199.367188 C 197.707031 199.800781 198.078125 200.257812 198.425781 200.734375 C 198.773438 201.210938 199.089844 201.707031 199.378906 202.21875 C 199.667969 202.734375 199.925781 203.261719 200.15625 203.804688 C 200.382812 204.351562 200.578125 204.90625 200.742188 205.472656 C 200.90625 206.039062 201.035156 206.613281 201.132812 207.195312 C 201.230469 207.777344 201.292969 208.363281 201.324219 208.949219 C 201.351562 209.539062 201.347656 210.128906 201.308594 210.71875 C 201.269531 211.304688 201.195312 211.890625 201.089844 212.46875 C 200.984375 213.050781 200.84375 213.621094 200.671875 214.183594 C 200.496094 214.75 200.292969 215.300781 200.054688 215.839844 C 199.820312 216.382812 199.550781 216.90625 199.253906 217.414062 C 198.957031 217.921875 198.628906 218.414062 198.277344 218.886719 C 197.921875 219.355469 197.542969 219.804688 197.132812 220.234375 C 196.726562 220.660156 196.296875 221.0625 195.84375 221.441406 C 195.390625 221.816406 194.917969 222.167969 194.425781 222.488281 C 193.929688 222.8125 193.421875 223.105469 192.894531 223.367188 C 192.367188 223.632812 191.824219 223.863281 191.269531 224.066406 C 190.714844 224.265625 190.152344 224.433594 189.578125 224.570312 C 189.003906 224.703125 188.421875 224.804688 187.835938 224.875 C 187.25 224.941406 186.664062 224.976562 186.074219 224.976562 C 185.484375 224.976562 184.898438 224.941406 184.3125 224.875 C 183.726562 224.804688 183.144531 224.703125 182.570312 224.570312 C 181.996094 224.433594 181.433594 224.265625 180.878906 224.066406 C 180.324219 223.863281 179.78125 223.632812 179.253906 223.367188 C 178.726562 223.105469 178.21875 222.8125 177.722656 222.488281 C 177.230469 222.167969 176.757812 221.816406 176.304688 221.441406 C 175.851562 221.0625 175.421875 220.660156 175.011719 220.234375 C 174.605469 219.804688 174.226562 219.355469 173.871094 218.886719 C 173.519531 218.414062 173.191406 217.925781 172.894531 217.414062 C 172.597656 216.90625 172.328125 216.382812 172.09375 215.839844 C 171.855469 215.300781 171.648438 214.75 171.476562 214.183594 C 171.304688 213.621094 171.164062 213.050781 171.058594 212.46875 C 170.953125 211.890625 170.878906 211.304688 170.839844 210.71875 C 170.800781 210.128906 170.796875 209.539062 170.824219 208.949219 C 170.855469 208.363281 170.917969 207.777344 171.015625 207.195312 C 171.113281 206.613281 171.242188 206.039062 171.40625 205.472656 C 171.570312 204.90625 171.765625 204.351562 171.992188 203.808594 C 172.222656 203.261719 172.480469 202.734375 172.769531 202.21875 C 173.058594 201.707031 173.375 201.210938 173.722656 200.734375 C 174.070312 200.257812 174.441406 199.800781 174.839844 199.367188 C 175.242188 198.933594 175.664062 198.523438 176.109375 198.140625 C 176.558594 197.753906 177.023438 197.398438 177.515625 197.066406 C 178.003906 196.734375 178.507812 196.433594 179.03125 196.160156 C 179.554688 195.890625 180.089844 195.648438 180.640625 195.4375 L 180.640625 104.515625 L 117.941406 104.515625 C 117.078125 104.519531 116.222656 104.601562 115.375 104.773438 C 114.527344 104.941406 113.703125 105.191406 112.902344 105.523438 C 112.105469 105.855469 111.347656 106.261719 110.628906 106.742188 C 109.910156 107.222656 109.242188 107.769531 108.632812 108.378906 C 108.019531 108.992188 107.476562 109.65625 106.992188 110.375 C 106.511719 111.09375 106.109375 111.851562 105.777344 112.652344 C 105.445312 113.449219 105.195312 114.273438 105.023438 115.121094 C 104.855469 115.96875 104.769531 116.824219 104.769531 117.6875 L 104.769531 256.792969 C 104.769531 257.660156 104.855469 258.515625 105.023438 259.363281 C 105.195312 260.210938 105.445312 261.035156 105.777344 261.832031 C 106.109375 262.628906 106.511719 263.390625 106.992188 264.109375 C 107.472656 264.828125 108.019531 265.492188 108.632812 266.105469 C 109.242188 266.714844 109.910156 267.261719 110.628906 267.742188 C 111.347656 268.222656 112.105469 268.628906 112.902344 268.960938 C 113.703125 269.289062 114.527344 269.539062 115.375 269.710938 C 116.222656 269.878906 117.078125 269.964844 117.941406 269.964844 L 140.257812 269.964844 L 140.257812 172.679688 C 139.714844 172.449219 139.183594 172.191406 138.667969 171.902344 C 138.152344 171.613281 137.65625 171.296875 137.179688 170.949219 C 136.699219 170.605469 136.242188 170.230469 135.808594 169.832031 C 135.375 169.433594 134.964844 169.011719 134.578125 168.5625 C 134.191406 168.117188 133.832031 167.648438 133.5 167.160156 C 133.167969 166.671875 132.867188 166.167969 132.59375 165.644531 C 132.320312 165.121094 132.078125 164.582031 131.867188 164.03125 C 131.65625 163.480469 131.476562 162.917969 131.332031 162.34375 C 131.1875 161.773438 131.074219 161.195312 130.996094 160.609375 C 130.917969 160.023438 130.871094 159.4375 130.863281 158.847656 C 130.851562 158.253906 130.875 157.667969 130.933594 157.078125 C 130.988281 156.492188 131.082031 155.910156 131.207031 155.332031 C 131.332031 154.753906 131.488281 154.1875 131.679688 153.628906 C 131.871094 153.070312 132.09375 152.523438 132.347656 151.992188 C 132.601562 151.457031 132.886719 150.941406 133.199219 150.441406 C 133.515625 149.941406 133.855469 149.460938 134.226562 149 C 134.59375 148.539062 134.992188 148.101562 135.410156 147.6875 C 135.832031 147.273438 136.273438 146.886719 136.738281 146.523438 C 137.207031 146.160156 137.691406 145.824219 138.195312 145.515625 C 138.699219 145.210938 139.21875 144.933594 139.753906 144.6875 C 140.292969 144.4375 140.839844 144.222656 141.402344 144.039062 C 141.964844 143.859375 142.53125 143.707031 143.113281 143.589844 C 143.691406 143.472656 144.273438 143.390625 144.863281 143.339844 C 145.449219 143.289062 146.039062 143.273438 146.628906 143.292969 C 147.21875 143.3125 147.808594 143.367188 148.390625 143.453125 C 148.976562 143.539062 149.550781 143.660156 150.121094 143.8125 C 150.691406 143.96875 151.25 144.152344 151.800781 144.371094 C 152.347656 144.589844 152.882812 144.839844 153.402344 145.121094 C 153.921875 145.398438 154.425781 145.710938 154.90625 146.046875 C 155.390625 146.386719 155.855469 146.753906 156.296875 147.144531 C 156.738281 147.535156 157.152344 147.953125 157.546875 148.394531 C 157.941406 148.832031 158.308594 149.296875 158.648438 149.777344 C 158.984375 150.261719 159.296875 150.761719 159.578125 151.28125 C 159.859375 151.800781 160.109375 152.332031 160.332031 152.882812 C 160.550781 153.429688 160.738281 153.988281 160.894531 154.558594 C 161.046875 155.128906 161.167969 155.703125 161.257812 156.289062 C 161.347656 156.871094 161.398438 157.460938 161.421875 158.050781 C 161.441406 158.640625 161.425781 159.230469 161.378906 159.816406 C 161.328125 160.40625 161.25 160.988281 161.132812 161.566406 C 161.015625 162.148438 160.867188 162.71875 160.6875 163.28125 C 160.503906 163.839844 160.289062 164.390625 160.042969 164.925781 C 159.800781 165.464844 159.523438 165.984375 159.21875 166.492188 C 158.910156 166.996094 158.578125 167.480469 158.214844 167.949219 C 157.851562 168.414062 157.464844 168.859375 157.050781 169.277344 C 156.636719 169.699219 156.203125 170.097656 155.742188 170.46875 C 155.28125 170.835938 154.804688 171.179688 154.304688 171.496094 C 153.804688 171.8125 153.289062 172.097656 152.757812 172.351562 C 152.222656 172.605469 151.679688 172.832031 151.121094 173.023438 L 151.121094 269.964844 L 222.210938 269.964844 L 222.210938 172.6875 C 221.667969 172.460938 221.136719 172.203125 220.621094 171.917969 C 220.105469 171.628906 219.609375 171.3125 219.128906 170.964844 C 218.652344 170.621094 218.195312 170.25 217.757812 169.851562 C 217.324219 169.453125 216.910156 169.03125 216.523438 168.585938 C 216.136719 168.136719 215.777344 167.671875 215.445312 167.183594 C 215.113281 166.695312 214.808594 166.191406 214.535156 165.667969 C 214.261719 165.144531 214.019531 164.609375 213.804688 164.054688 C 213.59375 163.503906 213.414062 162.945312 213.269531 162.371094 C 213.121094 161.800781 213.007812 161.222656 212.929688 160.636719 C 212.847656 160.050781 212.804688 159.464844 212.792969 158.875 C 212.78125 158.285156 212.800781 157.695312 212.859375 157.105469 C 212.914062 156.519531 213.003906 155.9375 213.128906 155.359375 C 213.253906 154.78125 213.410156 154.214844 213.601562 153.65625 C 213.789062 153.097656 214.011719 152.550781 214.265625 152.015625 C 214.519531 151.484375 214.800781 150.96875 215.113281 150.464844 C 215.429688 149.964844 215.769531 149.484375 216.136719 149.023438 C 216.507812 148.5625 216.902344 148.125 217.320312 147.710938 C 217.738281 147.292969 218.183594 146.90625 218.648438 146.539062 C 219.113281 146.175781 219.59375 145.839844 220.097656 145.53125 C 220.601562 145.222656 221.121094 144.945312 221.660156 144.699219 C 222.195312 144.449219 222.742188 144.234375 223.304688 144.050781 C 223.863281 143.867188 224.433594 143.714844 225.011719 143.597656 C 225.589844 143.480469 226.175781 143.394531 226.761719 143.34375 C 227.351562 143.292969 227.941406 143.277344 228.53125 143.296875 C 229.121094 143.3125 229.707031 143.363281 230.292969 143.449219 C 230.875 143.535156 231.453125 143.65625 232.023438 143.808594 C 232.59375 143.960938 233.152344 144.144531 233.703125 144.363281 C 234.25 144.582031 234.785156 144.828125 235.304688 145.109375 C 235.824219 145.386719 236.328125 145.695312 236.8125 146.035156 C 237.296875 146.371094 237.761719 146.734375 238.203125 147.128906 C 238.644531 147.519531 239.0625 147.933594 239.457031 148.375 C 239.851562 148.8125 240.21875 149.273438 240.558594 149.757812 C 240.898438 150.238281 241.210938 150.738281 241.492188 151.257812 C 241.773438 151.777344 242.027344 152.308594 242.246094 152.855469 C 242.46875 153.402344 242.65625 153.960938 242.8125 154.53125 C 242.96875 155.101562 243.089844 155.679688 243.179688 156.261719 C 243.269531 156.84375 243.324219 157.433594 243.347656 158.023438 C 243.367188 158.613281 243.355469 159.199219 243.308594 159.789062 C 243.261719 160.378906 243.179688 160.960938 243.066406 161.542969 C 242.949219 162.121094 242.800781 162.691406 242.621094 163.253906 C 242.441406 163.816406 242.226562 164.363281 241.984375 164.902344 C 241.738281 165.4375 241.464844 165.960938 241.160156 166.464844 C 240.855469 166.972656 240.519531 167.457031 240.160156 167.925781 C 239.796875 168.390625 239.410156 168.835938 239 169.257812 C 238.585938 169.679688 238.148438 170.078125 237.691406 170.449219 C 237.234375 170.820312 236.753906 171.164062 236.253906 171.480469 C 235.757812 171.796875 235.242188 172.082031 234.710938 172.339844 C 234.179688 172.59375 233.632812 172.820312 233.074219 173.011719 L 233.074219 269.964844 L 257.046875 269.964844 C 257.910156 269.964844 258.765625 269.878906 259.613281 269.710938 C 260.460938 269.539062 261.285156 269.289062 262.085938 268.960938 C 262.882812 268.628906 263.640625 268.222656 264.359375 267.742188 C 265.078125 267.261719 265.746094 266.714844 266.355469 266.105469 C 266.96875 265.492188 267.511719 264.828125 267.992188 264.109375 C 268.476562 263.390625 268.878906 262.628906 269.210938 261.832031 C 269.542969 261.035156 269.792969 260.210938 269.964844 259.363281 C 270.132812 258.515625 270.21875 257.660156 270.21875 256.792969 L 270.21875 117.6875 C 270.21875 116.824219 270.132812 115.96875 269.964844 115.121094 C 269.792969 114.273438 269.542969 113.449219 269.210938 112.652344 C 268.878906 111.851562 268.476562 111.09375 267.992188 110.375 C 267.511719 109.65625 266.96875 108.992188 266.355469 108.378906 C 265.746094 107.769531 265.078125 107.222656 264.359375 106.742188 C 263.640625 106.261719 262.882812 105.855469 262.085938 105.523438 C 261.285156 105.191406 260.460938 104.941406 259.613281 104.773438 C 258.765625 104.601562 257.910156 104.519531 257.046875 104.515625 Z M 257.046875 104.515625 " fill-opacity="1" fill-rule="nonzero"/></svg>