<svg xmlns="http://www.w3.org/2000/svg" xmlns:xlink="http://www.w3.org/1999/xlink" width="500" zoomAndPan="magnify" viewBox="0 0 375 374.999991" height="500" preserveAspectRatio="xMidYMid meet" version="1.0"><defs><clipPath id="5f9e6df055"><path d="M 4.769531 168 L 346 168 L 346 353 L 4.769531 353 Z M 4.769531 168 " clip-rule="nonzero"/></clipPath></defs><path fill="#ffc915" d="M 367.355469 178.679688 C 365.054688 176.378906 361.21875 176.378906 358.917969 178.679688 L 352.015625 185.964844 L 352.015625 184.816406 C 350.484375 93.925781 275.316406 21.445312 184.429688 22.59375 C 111.945312 23.746094 49.4375 71.683594 28.726562 141.097656 C 28.726562 141.863281 28.34375 142.246094 28.34375 143.015625 C 28.34375 145.699219 30.261719 148 32.5625 148.765625 C 35.628906 149.535156 39.082031 148 39.847656 144.546875 C 58.640625 79.738281 116.933594 35.632812 184.042969 34.484375 C 268.414062 33.332031 337.828125 100.445312 339.359375 184.816406 L 339.359375 185.964844 L 332.074219 178.679688 C 329.773438 176.378906 325.9375 176.378906 323.636719 178.679688 C 322.488281 179.828125 322.105469 181.363281 322.105469 182.898438 C 322.105469 184.433594 322.871094 185.964844 324.019531 187.117188 L 341.660156 204.375 C 343.964844 206.675781 347.796875 206.675781 350.097656 204.375 L 367.355469 186.734375 C 370.039062 184.816406 369.65625 180.980469 367.355469 178.679688 Z M 367.355469 178.679688 " fill-opacity="1" fill-rule="nonzero"/><g clip-path="url(#5f9e6df055)"><path fill="#ffc915" d="M 341.277344 226.234375 C 338.210938 225.464844 334.757812 227 333.992188 230.453125 C 315.199219 295.261719 256.910156 339.363281 189.796875 340.515625 C 105.425781 341.667969 36.015625 274.554688 34.480469 190.183594 L 34.480469 189.035156 L 41.765625 196.320312 C 44.066406 198.621094 47.902344 198.621094 50.203125 196.320312 C 52.503906 194.019531 52.503906 190.183594 50.203125 187.882812 L 32.5625 170.625 C 31.027344 169.09375 29.496094 168.324219 27.960938 168.324219 C 26.425781 168.324219 24.890625 169.09375 23.742188 170.242188 L 6.484375 187.882812 C 5.335938 189.035156 4.949219 190.566406 4.949219 192.101562 C 4.949219 193.636719 5.71875 195.167969 6.867188 196.320312 C 9.167969 198.621094 13.003906 198.621094 15.304688 196.320312 L 22.207031 189.035156 L 22.207031 190.183594 C 23.742188 281.074219 98.90625 353.554688 189.796875 352.402344 C 262.277344 351.253906 324.789062 303.699219 345.496094 233.902344 C 346.265625 230.453125 344.347656 227.382812 341.277344 226.234375 Z M 341.277344 226.234375 " fill-opacity="1" fill-rule="nonzero"/></g><path fill="#ffc915" d="M 187.113281 307.152344 C 253.457031 307.152344 307.148438 253.460938 307.148438 187.5 C 307.148438 121.15625 253.457031 67.464844 187.113281 67.464844 C 121.152344 67.464844 67.460938 121.15625 67.460938 187.5 C 67.460938 253.84375 120.765625 307.152344 187.113281 307.152344 Z M 187.113281 110.800781 C 205.519531 110.800781 220.09375 125.757812 220.09375 143.78125 C 220.09375 162.1875 205.136719 176.761719 187.113281 176.761719 C 169.085938 176.761719 154.132812 161.804688 154.132812 143.78125 C 153.746094 125.375 168.703125 110.800781 187.113281 110.800781 Z M 133.804688 211.277344 C 138.792969 197.472656 149.144531 187.117188 162.183594 182.132812 C 169.472656 186.734375 177.910156 189.800781 187.113281 189.800781 C 196.316406 189.800781 205.136719 187.117188 212.039062 182.132812 C 225.078125 187.117188 235.433594 197.855469 240.417969 211.277344 C 243.871094 221.246094 246.171875 231.601562 246.9375 241.957031 C 247.320312 246.941406 243.488281 250.777344 238.5 250.777344 L 134.957031 250.777344 C 130.355469 250.777344 126.136719 246.941406 126.519531 241.957031 C 128.054688 231.601562 129.972656 221.246094 133.804688 211.277344 Z M 133.804688 211.277344 " fill-opacity="1" fill-rule="nonzero"/></svg>