<svg xmlns="http://www.w3.org/2000/svg" xmlns:xlink="http://www.w3.org/1999/xlink" width="500" zoomAndPan="magnify" viewBox="0 0 375 374.999991" height="500" preserveAspectRatio="xMidYMid meet" version="1.0"><defs><clipPath id="a4b2771832"><path d="M 7 14.96875 L 368.613281 14.96875 L 368.613281 359.96875 L 7 359.96875 Z M 7 14.96875 " clip-rule="nonzero"/></clipPath></defs><g clip-path="url(#a4b2771832)"><path fill="#ffc915" d="M 279.328125 74.429688 C 279.328125 57.804688 292.804688 44.328125 309.429688 44.328125 C 326.054688 44.328125 339.535156 57.804688 339.535156 74.429688 C 339.535156 91.054688 326.054688 104.53125 309.429688 104.53125 C 292.804688 104.53125 279.328125 91.054688 279.328125 74.429688 Z M 227.5625 132.699219 C 194.082031 98.65625 149.578125 116.613281 150.300781 156.207031 C 150.949219 191.773438 199.585938 227.417969 226.027344 242.949219 C 227 243.519531 228.121094 243.519531 229.097656 242.949219 C 255.535156 227.417969 304.179688 191.769531 304.824219 156.203125 C 305.539062 116.605469 261.035156 98.664062 227.5625 132.699219 Z M 145.691406 104.53125 C 162.316406 104.53125 175.796875 91.054688 175.796875 74.429688 C 175.796875 57.804688 162.316406 44.328125 145.691406 44.328125 C 129.066406 44.328125 115.589844 57.804688 115.589844 74.429688 C 115.589844 91.054688 129.066406 104.53125 145.691406 104.53125 Z M 227.5625 117.671875 C 240.765625 107.429688 257.097656 101.542969 273.628906 104 C 262.710938 90.675781 246.128906 82.171875 227.5625 82.171875 C 208.992188 82.171875 192.414062 90.675781 181.496094 104 C 198.027344 101.542969 214.359375 107.429688 227.5625 117.671875 Z M 227.5625 75.140625 C 244.1875 75.140625 257.664062 61.664062 257.664062 45.039062 C 257.664062 28.414062 244.1875 14.9375 227.5625 14.9375 C 210.9375 14.9375 197.460938 28.414062 197.460938 45.039062 C 197.460938 61.664062 210.9375 75.140625 227.5625 75.140625 Z M 88.894531 164.695312 L 139.878906 164.695312 C 136.378906 145.085938 143.703125 124.539062 159.191406 113.105469 C 154.855469 112.097656 150.335938 111.5625 145.691406 111.5625 C 115.808594 111.5625 91.074219 133.578125 86.808594 162.273438 C 86.617188 163.554688 87.601562 164.695312 88.894531 164.695312 Z M 87.035156 343.011719 C 88.117188 344.921875 87.433594 347.414062 85.5 348.507812 L 67.121094 358.910156 C 65.207031 359.992188 62.71875 359.308594 61.625 357.375 L 7.585938 261.894531 C 6.503906 259.980469 7.1875 257.492188 9.117188 256.398438 L 27.503906 245.992188 C 29.40625 244.917969 31.871094 245.578125 32.996094 247.527344 C 51.433594 278.871094 69.097656 311.3125 87.035156 343.011719 Z M 32.925781 264.617188 C 32.402344 261.03125 29.070312 258.546875 25.484375 259.070312 C 21.898438 259.597656 19.417969 262.929688 19.941406 266.515625 C 20.464844 270.101562 23.796875 272.582031 27.382812 272.058594 C 30.96875 271.535156 33.453125 268.203125 32.925781 264.617188 Z M 337.695312 230.792969 C 327.867188 225.816406 312.730469 232.863281 303.449219 238.269531 L 237.9375 276.425781 C 227.644531 282.417969 216.742188 284.0625 205.042969 282.191406 C 202.632812 281.992188 199.363281 281.28125 196.890625 280.871094 C 187.476562 279.300781 176.355469 275.863281 167.070312 273.210938 C 162.402344 271.878906 157.667969 270.527344 153.003906 269.277344 C 150.003906 268.476562 148.226562 265.398438 149.027344 262.398438 C 149.828125 259.402344 152.90625 257.621094 155.902344 258.421875 C 160.925781 259.769531 165.570312 261.09375 170.148438 262.402344 C 179.761719 265.148438 189.03125 268.046875 198.503906 269.753906 C 205.738281 271.0625 212.082031 267.988281 214.046875 260.652344 C 215.90625 253.707031 211.515625 247.132812 204.953125 244.863281 L 151.1875 228.9375 C 145.859375 227.359375 141.238281 225.339844 137.3125 224.066406 C 124.746094 219.992188 112.761719 225.449219 101.992188 231.6875 L 52.980469 260.0625 L 85.605469 317.703125 L 98.898438 310.027344 C 100.234375 309.257812 101.757812 309.101562 103.136719 309.460938 L 189.371094 332.558594 C 200.289062 335.484375 210.625 334.164062 220.277344 328.21875 C 259.90625 303.824219 299.539062 279.4375 339.164062 255.039062 C 343.144531 252.585938 345.113281 246.964844 344.542969 241.496094 C 344.078125 236.980469 341.835938 232.890625 337.695312 230.792969 Z M 368.316406 162.273438 C 364.050781 133.578125 339.3125 111.5625 309.429688 111.5625 C 304.785156 111.5625 300.265625 112.097656 295.929688 113.105469 C 311.417969 124.539062 318.742188 145.085938 315.242188 164.695312 L 366.226562 164.695312 C 367.523438 164.695312 368.507812 163.554688 368.316406 162.273438 Z M 368.316406 162.273438 " fill-opacity="1" fill-rule="nonzero"/></g></svg>